<svg width="88" height="88" viewBox="0 0 88 88" fill="none" xmlns="http://www.w3.org/2000/svg">
<g filter="url(#filter0_d_1_647)">
<rect x="14" y="14.0001" width="60" height="60" rx="30" fill="white" shape-rendering="crispEdges"/>
<path d="M39.0282 35.0592C38.7646 35.3229 38.6165 35.6806 38.6165 36.0534C38.6165 36.4263 38.7646 36.7839 39.0282 37.0477L45.9891 44.0086L39.0282 50.9695C38.772 51.2348 38.6303 51.59 38.6335 51.9587C38.6367 52.3274 38.7846 52.6801 39.0453 52.9408C39.306 53.2016 39.6588 53.3495 40.0275 53.3527C40.3962 53.3559 40.7514 53.2141 41.0166 52.958L48.9718 45.0028C49.2354 44.7391 49.3835 44.3815 49.3835 44.0086C49.3835 43.6357 49.2354 43.2781 48.9718 43.0144L41.0166 35.0592C40.7529 34.7956 40.3953 34.6475 40.0224 34.6475C39.6495 34.6475 39.2919 34.7956 39.0282 35.0592Z" fill="#BD1F17"/>
</g>
<defs>
<filter id="filter0_d_1_647" x="0.363637" y="0.363759" width="87.2727" height="87.2727" filterUnits="userSpaceOnUse" color-interpolation-filters="sRGB">
<feFlood flood-opacity="0" result="BackgroundImageFix"/>
<feColorMatrix in="SourceAlpha" type="matrix" values="0 0 0 0 0 0 0 0 0 0 0 0 0 0 0 0 0 0 127 0" result="hardAlpha"/>
<feOffset/>
<feGaussianBlur stdDeviation="6.81818"/>
<feComposite in2="hardAlpha" operator="out"/>
<feColorMatrix type="matrix" values="0 0 0 0 0 0 0 0 0 0 0 0 0 0 0 0 0 0 0.1 0"/>
<feBlend mode="normal" in2="BackgroundImageFix" result="effect1_dropShadow_1_647"/>
<feBlend mode="normal" in="SourceGraphic" in2="effect1_dropShadow_1_647" result="shape"/>
</filter>
</defs>
</svg>
