<svg width="54" height="55" viewBox="0 0 54 55" fill="none" xmlns="http://www.w3.org/2000/svg">
<rect x="1.15912" y="1.58483" width="52.2273" height="52.2273" rx="26.1136" stroke="#E5E7EB" stroke-width="1.22727"/>
<path d="M33.5553 18.6985H21.0761C19.5388 18.6985 18.2728 19.9585 18.2728 21.4885V33.8185C18.2728 35.4385 19.5388 36.6985 21.0761 36.6985H33.4649C35.0022 36.6985 36.2682 35.4385 36.2682 33.9085V21.4885C36.3586 19.9585 35.0926 18.6985 33.5553 18.6985ZM29.3051 32.5585L29.1243 32.2885L26.6827 28.7785L23.4272 32.5585H22.6134L26.321 28.2385L23.2464 23.8285L22.6134 22.8385H25.4167L25.5975 23.1085L27.8583 26.4385L30.2094 23.6485L30.9329 22.8385H31.7467L28.22 26.9785L31.385 31.5685L32.1084 32.5585H29.3051Z" fill="white"/>
</svg>
